<svg width="150" height="150" viewBox="0 0 150 150" fill="none" xmlns="http://www.w3.org/2000/svg">
<rect width="150" height="150" fill="white"/>
<path d="M44.5341 40.1818V110H31.8864V40.1818H44.5341ZM105.003 62.4773C104.435 60.6364 103.651 58.9886 102.651 57.5341C101.673 56.0568 100.491 54.7955 99.1051 53.75C97.7415 52.7045 96.1733 51.9205 94.4006 51.3977C92.6278 50.8523 90.696 50.5795 88.6051 50.5795C84.8551 50.5795 81.5142 51.5227 78.5824 53.4091C75.6506 55.2955 73.3438 58.0682 71.6619 61.7273C70.0028 65.3636 69.1733 69.7955 69.1733 75.0227C69.1733 80.2955 70.0028 84.7614 71.6619 88.4205C73.321 92.0795 75.6278 94.8636 78.5824 96.7727C81.5369 98.6591 84.9688 99.6023 88.8778 99.6023C92.4233 99.6023 95.4915 98.9205 98.0824 97.5568C100.696 96.1932 102.707 94.2614 104.116 91.7614C105.526 89.2386 106.23 86.2841 106.23 82.8977L109.094 83.3409H90.1392V73.4545H118.469V81.8409C118.469 87.8182 117.196 92.9886 114.651 97.3523C112.105 101.716 108.605 105.08 104.151 107.443C99.696 109.784 94.5824 110.955 88.8097 110.955C82.3778 110.955 76.7301 109.511 71.8665 106.625C67.0256 103.716 63.2415 99.5909 60.5142 94.25C57.8097 88.8864 56.4574 82.5227 56.4574 75.1591C56.4574 69.5227 57.2528 64.4886 58.8438 60.0568C60.4574 55.625 62.7074 51.8636 65.5938 48.7727C68.4801 45.6591 71.8665 43.2955 75.7528 41.6818C79.6392 40.0455 83.8665 39.2273 88.4347 39.2273C92.2983 39.2273 95.9006 39.7955 99.2415 40.9318C102.582 42.0455 105.548 43.6364 108.139 45.7045C110.753 47.7727 112.901 50.2273 114.582 53.0682C116.264 55.9091 117.366 59.0455 117.889 62.4773H105.003Z" fill="black"/>
</svg>
